<?xml version="1.0" encoding="UTF-8" standalone="no"?>
<!-- Created with Inkscape (http://www.inkscape.org/) -->

<svg
   width="31.6mm"
   height="24mm"
   viewBox="0 0 31.600001 24"
   version="1.1"
   id="svg1"
   xml:space="preserve"
   inkscape:version="1.4.4 (dcaf3e7, 2026-05-05)"
   sodipodi:docname="www.svg"
   xmlns:inkscape="http://www.inkscape.org/namespaces/inkscape"
   xmlns:sodipodi="http://sodipodi.sourceforge.net/DTD/sodipodi-0.dtd"
   xmlns="http://www.w3.org/2000/svg"
   xmlns:svg="http://www.w3.org/2000/svg"><sodipodi:namedview
     id="namedview1"
     pagecolor="#ffffff"
     bordercolor="#000000"
     borderopacity="0.25"
     inkscape:showpageshadow="2"
     inkscape:pageopacity="0.0"
     inkscape:pagecheckerboard="true"
     inkscape:deskcolor="#d1d1d1"
     inkscape:document-units="mm"
     inkscape:zoom="3.2749291"
     inkscape:cx="52.978247"
     inkscape:cy="83.207909"
     inkscape:window-width="1920"
     inkscape:window-height="1008"
     inkscape:window-x="0"
     inkscape:window-y="0"
     inkscape:window-maximized="1"
     inkscape:current-layer="layer1" /><defs
     id="defs1" /><g
     inkscape:label="Layer 1"
     inkscape:groupmode="layer"
     id="layer1"><!--!Font Awesome Free v7.3.1 by @fontawesome - https://fontawesome.com License - https://fontawesome.com/license/free Copyright 2026 Fonticons, Inc.--><g
       id="g5"
       transform="translate(3.7949359)"><g
         style="display:inline;fill:none;stroke:currentColor;stroke-width:2;stroke-linecap:round;stroke-linejoin:round"
         id="g1"
         transform="matrix(1.0909091,0,0,1.0909091,-1.0909091,-1.0909091)"><path
           d="M 21.54,15 H 17 c -1.104569,0 -2,0.895431 -2,2 v 4.54 c 0,0 2.309469,-0.842154 4.046814,-2.493186 C 20.784158,17.395782 21.54,15 21.54,15 Z"
           id="path1-5"
           sodipodi:nodetypes="cssczc"
           style="display:inline;fill:#000000;fill-opacity:0.22;stroke-width:1.54183;stroke-dasharray:none" /><path
           d="M 7,3.34 V 5 c 0,1.6568542 1.3431458,3 3,3 1.104569,0 2,0.8954305 2,2 0,1.1 0.9,2 2,2 1.104569,0 2,-0.895431 2,-2 0,-1.1 0.9,-2 2,-2 h 3.17 C 21.17,8 19.68339,3.8141315 14.90497,2.4332764 10.12655,1.0524213 7,3.34 7,3.34 Z"
           id="path2-3"
           sodipodi:nodetypes="cssssssczc"
           style="fill:#000000;fill-opacity:0.22;stroke-width:1.54183;stroke-dasharray:none" /><path
           d="M 11,21.95 V 18 C 11,16.895431 10.104569,16 9,16 7.8954305,16 7,15.104569 7,14 V 13 C 7,11.895431 6.1045695,11 5,11 H 2.05 c 0,0 -0.3428234,5.024101 2.7487474,7.93491 C 7.8903182,21.845719 11,21.95 11,21.95 Z"
           id="path3-5"
           style="fill:#000000;fill-opacity:0.22;stroke-width:1.54183;stroke-dasharray:none"
           sodipodi:nodetypes="csssssczc" /><circle
           cx="12"
           cy="12"
           r="10"
           id="circle3-6" /></g></g><g
       id="g3"
       transform="translate(-2.3459696,1.5112926)"><path
         d="M 12.07757,7.3401537 10.401876,13.637234 H 9.5993072 L 8.3734051,9.5097359 Q 8.3028496,9.2539721 8.232294,8.9982084 8.1617385,8.7424446 8.1176413,8.5484169 8.0735441,8.3455698 8.0559052,8.2661948 8.0470858,8.3808476 7.9588914,8.7600835 7.8795164,9.1305 7.7560443,9.5361942 L 6.5654199,13.637234 H 5.7628509 L 4.0959767,7.3401537 h 0.8290274 l 0.9789578,3.8452753 q 0.1058333,0.405695 0.1763888,0.784931 0.079375,0.379236 0.1234722,0.714374 0.044097,-0.343958 0.1322916,-0.749652 0.088194,-0.405694 0.2028471,-0.79375 L 7.650211,7.3401537 h 0.8202079 l 1.1553466,3.8276373 q 0.1234722,0.405694 0.2116666,0.811388 0.088194,0.396875 0.1322916,0.705555 0.044097,-0.326319 0.1234723,-0.705555 0.07937,-0.388055 0.185208,-0.802569 l 0.970138,-3.8364563 z m 10.054145,0 -1.675694,6.2970803 H 19.653452 L 18.42755,9.5097359 Q 18.356994,9.2539721 18.286439,8.9982084 18.215883,8.7424446 18.171786,8.5484169 18.127689,8.3455698 18.11005,8.2661948 18.101231,8.3808476 18.013036,8.7600835 17.933661,9.1305 17.810189,9.5361942 L 16.619565,13.637234 H 15.816996 L 14.150122,7.3401537 h 0.829027 l 0.978958,3.8452753 q 0.105833,0.405695 0.176389,0.784931 0.07938,0.379236 0.123472,0.714374 0.0441,-0.343958 0.132291,-0.749652 0.08819,-0.405694 0.202847,-0.79375 l 1.11125,-3.8011783 h 0.820208 l 1.155346,3.8276373 q 0.123473,0.405694 0.211667,0.811388 0.08819,0.396875 0.132292,0.705555 0.0441,-0.326319 0.123472,-0.705555 0.07937,-0.388055 0.185208,-0.802569 l 0.970138,-3.8364563 z m 10.054145,0 -1.675694,6.2970803 H 29.707597 L 28.481695,9.5097359 Q 28.411139,9.2539721 28.340584,8.9982084 28.270028,8.7424446 28.225931,8.5484169 28.181834,8.3455698 28.164195,8.2661948 28.155376,8.3808476 28.067181,8.7600835 27.987806,9.1305 27.864334,9.5361942 L 26.67371,13.637234 H 25.871141 L 24.204266,7.3401537 h 0.829028 l 0.978958,3.8452753 q 0.105833,0.405695 0.176388,0.784931 0.07937,0.379236 0.123473,0.714374 0.0441,-0.343958 0.132291,-0.749652 0.0882,-0.405694 0.202847,-0.79375 l 1.11125,-3.8011783 h 0.820208 l 1.155346,3.8276373 q 0.123472,0.405694 0.211667,0.811388 0.08819,0.396875 0.132291,0.705555 0.0441,-0.326319 0.123473,-0.705555 0.07938,-0.388055 0.185208,-0.802569 l 0.970138,-3.8364563 z"
         id="text2-9"
         style="font-size:8.81944px;line-height:0;text-align:center;letter-spacing:1.85208px;text-anchor:middle;fill:#ffffff;fill-opacity:0.48573;stroke:#ffffff;stroke-width:3.5;stroke-linecap:round;stroke-linejoin:round"
         aria-label="WWW" /><path
         style="font-size:8.81944px;line-height:0;text-align:center;letter-spacing:1.85208px;text-anchor:middle;stroke:#000000;stroke-width:0.682;stroke-linejoin:round"
         d="M 12.07757,7.3401537 10.401876,13.637234 H 9.5993072 L 8.3734051,9.5097359 Q 8.3028496,9.2539721 8.232294,8.9982084 8.1617385,8.7424446 8.1176413,8.5484169 8.0735441,8.3455698 8.0559052,8.2661948 8.0470858,8.3808476 7.9588914,8.7600835 7.8795164,9.1305 7.7560443,9.5361942 L 6.5654199,13.637234 H 5.7628509 L 4.0959767,7.3401537 h 0.8290274 l 0.9789578,3.8452753 q 0.1058333,0.405695 0.1763888,0.784931 0.079375,0.379236 0.1234722,0.714374 0.044097,-0.343958 0.1322916,-0.749652 0.088194,-0.405694 0.2028471,-0.79375 L 7.650211,7.3401537 h 0.8202079 l 1.1553466,3.8276373 q 0.1234722,0.405694 0.2116666,0.811388 0.088194,0.396875 0.1322916,0.705555 0.044097,-0.326319 0.1234723,-0.705555 0.07937,-0.388055 0.185208,-0.802569 l 0.970138,-3.8364563 z m 10.054145,0 -1.675694,6.2970803 H 19.653452 L 18.42755,9.5097359 Q 18.356994,9.2539721 18.286439,8.9982084 18.215883,8.7424446 18.171786,8.5484169 18.127689,8.3455698 18.11005,8.2661948 18.101231,8.3808476 18.013036,8.7600835 17.933661,9.1305 17.810189,9.5361942 L 16.619565,13.637234 H 15.816996 L 14.150122,7.3401537 h 0.829027 l 0.978958,3.8452753 q 0.105833,0.405695 0.176389,0.784931 0.07938,0.379236 0.123472,0.714374 0.0441,-0.343958 0.132291,-0.749652 0.08819,-0.405694 0.202847,-0.79375 l 1.11125,-3.8011783 h 0.820208 l 1.155346,3.8276373 q 0.123473,0.405694 0.211667,0.811388 0.08819,0.396875 0.132292,0.705555 0.0441,-0.326319 0.123472,-0.705555 0.07937,-0.388055 0.185208,-0.802569 l 0.970138,-3.8364563 z m 10.054145,0 -1.675694,6.2970803 H 29.707597 L 28.481695,9.5097359 Q 28.411139,9.2539721 28.340584,8.9982084 28.270028,8.7424446 28.225931,8.5484169 28.181834,8.3455698 28.164195,8.2661948 28.155376,8.3808476 28.067181,8.7600835 27.987806,9.1305 27.864334,9.5361942 L 26.67371,13.637234 H 25.871141 L 24.204266,7.3401537 h 0.829028 l 0.978958,3.8452753 q 0.105833,0.405695 0.176388,0.784931 0.07937,0.379236 0.123473,0.714374 0.0441,-0.343958 0.132291,-0.749652 0.0882,-0.405694 0.202847,-0.79375 l 1.11125,-3.8011783 h 0.820208 l 1.155346,3.8276373 q 0.123472,0.405694 0.211667,0.811388 0.08819,0.396875 0.132291,0.705555 0.0441,-0.326319 0.123473,-0.705555 0.07938,-0.388055 0.185208,-0.802569 l 0.970138,-3.8364563 z"
         id="text2"
         aria-label="WWW" /></g></g></svg>
